<?xml version="1.0" encoding="UTF-8"?>
<svg version="1.1" xmlns="http://www.w3.org/2000/svg" width="32" height="32">
<path d="M0 0 C10.56 0 21.12 0 32 0 C32 10.56 32 21.12 32 32 C21.44 32 10.88 32 0 32 C0 21.44 0 10.88 0 0 Z " fill="#3F75B7" transform="translate(0,0)"/>
<path d="M0 0 C3.9375 0.625 3.9375 0.625 6.4375 2.5 C7.9375 4.625 7.9375 4.625 7.9375 6.625 C6.9475 6.625 5.9575 6.625 4.9375 6.625 C4.504375 6.109375 4.07125 5.59375 3.625 5.0625 C1.9091043 3.26452177 1.9091043 3.26452177 -1.1875 3.8125 C-2.13625 4.080625 -3.085 4.34875 -4.0625 4.625 C-5.65621004 7.81242009 -5.44474409 11.15648881 -5.0625 14.625 C-4.12041909 16.81911252 -4.12041909 16.81911252 -2.0625 17.625 C1.05743606 17.54957659 1.05743606 17.54957659 3.9375 16.625 C4.2675 15.965 4.5975 15.305 4.9375 14.625 C5.9275 14.625 6.9175 14.625 7.9375 14.625 C6.1875 19.5 6.1875 19.5 3.9375 20.625 C-3.27976041 21.20703713 -3.27976041 21.20703713 -6.5 18.8125 C-9.32899783 14.85190303 -9.54667261 11.38603066 -9.0625 6.625 C-6.65124219 2.48065064 -4.83827158 0.26226145 0 0 Z " fill="#E4ECF4" transform="translate(13.0625,5.375)"/>
<path d="M0 0 C0.99 0 1.98 0 3 0 C3 6.6 3 13.2 3 20 C2.01 20 1.02 20 0 20 C0 13.4 0 6.8 0 0 Z " fill="#E1E9F3" transform="translate(25,6)"/>
<path d="M0 0 C2.5 1.875 2.5 1.875 4 4 C4 4.66 4 5.32 4 6 C3.01 6 2.02 6 1 6 C0.566875 5.484375 0.13375 4.96875 -0.3125 4.4375 C-2.01262238 2.69818049 -2.01262238 2.69818049 -5 2.8125 C-8.06595627 3.66338909 -8.06595627 3.66338909 -9.0546875 5.859375 C-9.81089801 7.89034036 -10.45545383 9.90301956 -11 12 C-11.33 12 -11.66 12 -12 12 C-12.48 4.8 -12.48 4.8 -10.5 1.5 C-6.98957483 -0.6062551 -3.99543111 -0.8351106 0 0 Z " fill="#EEF3F8" transform="translate(17,6)"/>
<path d="M0 0 C-0.8125 2.4375 -0.8125 2.4375 -2 5 C-2.99 5.33 -3.98 5.66 -5 6 C-5.33 5.01 -5.66 4.02 -6 3 C-3.375 0 -3.375 0 0 0 Z " fill="#E0E8F3" transform="translate(21,20)"/>
</svg>
